<svg width="32" height="32" viewBox="0 0 32 32" fill="none" xmlns="http://www.w3.org/2000/svg">
<path d="M26.3306 6.66673C28.2204 9.29372 29.3334 12.5169 29.3334 16.0001C29.3334 19.4832 28.2204 22.7064 26.3306 25.3334M20.9938 10.6667C22.0483 12.1785 22.6668 14.0171 22.6668 16.0001C22.6668 17.9831 22.0483 19.8216 20.9938 21.3334M12.8458 5.82098L8.62492 10.0419C8.39432 10.2725 8.27902 10.3878 8.14446 10.4703C8.02517 10.5434 7.89511 10.5972 7.75906 10.6299C7.60561 10.6667 7.44255 10.6667 7.11643 10.6667H4.80008C4.05334 10.6667 3.67998 10.6667 3.39476 10.8121C3.14388 10.9399 2.9399 11.1439 2.81207 11.3947C2.66675 11.68 2.66675 12.0533 2.66675 12.8001V19.2001C2.66675 19.9468 2.66675 20.3202 2.81207 20.6054C2.9399 20.8563 3.14388 21.0602 3.39476 21.1881C3.67998 21.3334 4.05334 21.3334 4.80008 21.3334H7.11643C7.44255 21.3334 7.60561 21.3334 7.75906 21.3702C7.89511 21.4029 8.02517 21.4568 8.14446 21.5299C8.27902 21.6123 8.39432 21.7276 8.62492 21.9582L12.8458 26.1792C13.417 26.7503 13.7026 27.0359 13.9478 27.0552C14.1605 27.0719 14.3684 26.9858 14.507 26.8236C14.6667 26.6365 14.6667 26.2327 14.6667 25.4249V6.57523C14.6667 5.76747 14.6667 5.3636 14.507 5.17658C14.3684 5.0143 14.1605 4.92819 13.9478 4.94493C13.7026 4.96423 13.417 5.24981 12.8458 5.82098Z" stroke="#0A0A0A" stroke-width="2" stroke-linecap="round" stroke-linejoin="round"/>
</svg>
